<svg xmlns="http://www.w3.org/2000/svg" version="1.1" xmlns:xlink="http://www.w3.org/1999/xlink" xmlns:svgjs="http://svgjs.dev/svgjs" viewBox="0 0 800 800"><defs><linearGradient x1="50%" y1="0%" x2="50%" y2="100%" id="ffflurry-grad" gradientTransform="rotate(270)"><stop stop-color="hsl(238, 82%, 13%)" stop-opacity="1" offset="0%"></stop><stop stop-color="hsl(1.4, 100%, 67%)" stop-opacity="1" offset="45%"></stop><stop stop-color="hsl(167, 52%, 78%)" stop-opacity="1" offset="100%"></stop></linearGradient></defs><rect width="100%" height="100%" fill="hsl(238, 82%, 13%)"></rect><g fill="url(#ffflurry-grad)"><rect width="117" height="3" x="-21.5" y="749.5" rx="1.5" transform="rotate(45, 37, 751)" opacity="0.50"></rect><rect width="463" height="3" x="431.5" y="168.5" rx="1.5" transform="rotate(45, 663, 170)" opacity="0.78"></rect><rect width="225" height="3" x="291.5" y="625.5" rx="1.5" transform="rotate(45, 404, 627)" opacity="0.08"></rect><rect width="23" height="3" x="184.5" y="18.5" rx="1.5" transform="rotate(45, 196, 20)" opacity="0.73"></rect><rect width="42" height="3" x="233" y="408.5" rx="1.5" transform="rotate(45, 254, 410)" opacity="0.55"></rect><rect width="132" height="3" x="100" y="764.5" rx="1.5" transform="rotate(45, 166, 766)" opacity="0.32"></rect><rect width="127" height="3" x="65.5" y="593.5" rx="1.5" transform="rotate(45, 129, 595)" opacity="0.89"></rect><rect width="215" height="3" x="456.5" y="109.5" rx="1.5" transform="rotate(45, 564, 111)" opacity="0.17"></rect><rect width="76" height="3" x="255" y="265.5" rx="1.5" transform="rotate(45, 293, 267)" opacity="0.56"></rect><rect width="282" height="3" x="354" y="627.5" rx="1.5" transform="rotate(45, 495, 629)" opacity="0.66"></rect><rect width="284" height="3" x="-102" y="164.5" rx="1.5" transform="rotate(45, 40, 166)" opacity="0.66"></rect><rect width="287" height="3" x="117.5" y="103.5" rx="1.5" transform="rotate(45, 261, 105)" opacity="0.62"></rect><rect width="559" height="3" x="-180.5" y="479.5" rx="1.5" transform="rotate(45, 99, 481)" opacity="0.55"></rect><rect width="471" height="3" x="-51.5" y="548.5" rx="1.5" transform="rotate(45, 184, 550)" opacity="0.33"></rect><rect width="276" height="3" x="125" y="33.5" rx="1.5" transform="rotate(45, 263, 35)" opacity="0.35"></rect><rect width="97" height="3" x="720.5" y="347.5" rx="1.5" transform="rotate(45, 769, 349)" opacity="0.57"></rect><rect width="185" height="3" x="-62.5" y="640.5" rx="1.5" transform="rotate(45, 30, 642)" opacity="0.07"></rect><rect width="39" height="3" x="161.5" y="67.5" rx="1.5" transform="rotate(45, 181, 69)" opacity="0.40"></rect><rect width="191" height="3" x="188.5" y="176.5" rx="1.5" transform="rotate(45, 284, 178)" opacity="0.34"></rect><rect width="78" height="3" x="261" y="721.5" rx="1.5" transform="rotate(45, 300, 723)" opacity="0.56"></rect><rect width="87" height="3" x="324.5" y="731.5" rx="1.5" transform="rotate(45, 368, 733)" opacity="0.11"></rect><rect width="133" height="3" x="368.5" y="720.5" rx="1.5" transform="rotate(45, 435, 722)" opacity="0.76"></rect><rect width="543" height="3" x="488.5" y="44.5" rx="1.5" transform="rotate(45, 760, 46)" opacity="0.72"></rect><rect width="67" height="3" x="73.5" y="213.5" rx="1.5" transform="rotate(45, 107, 215)" opacity="0.89"></rect><rect width="228" height="3" x="213" y="582.5" rx="1.5" transform="rotate(45, 327, 584)" opacity="0.80"></rect><rect width="82" height="3" x="595" y="465.5" rx="1.5" transform="rotate(45, 636, 467)" opacity="0.12"></rect><rect width="350" height="3" x="217" y="236.5" rx="1.5" transform="rotate(45, 392, 238)" opacity="0.10"></rect><rect width="404" height="3" x="419" y="705.5" rx="1.5" transform="rotate(45, 621, 707)" opacity="0.16"></rect><rect width="505" height="3" x="-69.5" y="457.5" rx="1.5" transform="rotate(45, 183, 459)" opacity="0.59"></rect><rect width="394" height="3" x="26" y="716.5" rx="1.5" transform="rotate(45, 223, 718)" opacity="0.19"></rect><rect width="134" height="3" x="525" y="522.5" rx="1.5" transform="rotate(45, 592, 524)" opacity="0.23"></rect><rect width="477" height="3" x="150.5" y="49.5" rx="1.5" transform="rotate(45, 389, 51)" opacity="0.52"></rect><rect width="60" height="3" x="534" y="598.5" rx="1.5" transform="rotate(45, 564, 600)" opacity="0.91"></rect><rect width="397" height="3" x="-93.5" y="746.5" rx="1.5" transform="rotate(45, 105, 748)" opacity="0.52"></rect><rect width="171" height="3" x="607.5" y="422.5" rx="1.5" transform="rotate(45, 693, 424)" opacity="0.46"></rect><rect width="561" height="3" x="209.5" y="294.5" rx="1.5" transform="rotate(45, 490, 296)" opacity="0.44"></rect><rect width="331" height="3" x="362.5" y="766.5" rx="1.5" transform="rotate(45, 528, 768)" opacity="0.52"></rect><rect width="385" height="3" x="119.5" y="74.5" rx="1.5" transform="rotate(45, 312, 76)" opacity="0.86"></rect><rect width="74" height="3" x="250" y="346.5" rx="1.5" transform="rotate(45, 287, 348)" opacity="0.31"></rect><rect width="658" height="3" x="141" y="58.5" rx="1.5" transform="rotate(45, 470, 60)" opacity="0.95"></rect><rect width="405" height="3" x="364.5" y="229.5" rx="1.5" transform="rotate(45, 567, 231)" opacity="0.73"></rect><rect width="242" height="3" x="9" y="384.5" rx="1.5" transform="rotate(45, 130, 386)" opacity="1.00"></rect><rect width="87" height="3" x="722.5" y="734.5" rx="1.5" transform="rotate(45, 766, 736)" opacity="0.79"></rect><rect width="466" height="3" x="159" y="523.5" rx="1.5" transform="rotate(45, 392, 525)" opacity="0.45"></rect><rect width="598" height="3" x="101" y="439.5" rx="1.5" transform="rotate(45, 400, 441)" opacity="0.84"></rect><rect width="206" height="3" x="-28" y="50.5" rx="1.5" transform="rotate(45, 75, 52)" opacity="0.85"></rect><rect width="293" height="3" x="-108.5" y="524.5" rx="1.5" transform="rotate(45, 38, 526)" opacity="0.93"></rect><rect width="166" height="3" x="163" y="622.5" rx="1.5" transform="rotate(45, 246, 624)" opacity="0.75"></rect><rect width="255" height="3" x="462.5" y="31.5" rx="1.5" transform="rotate(45, 590, 33)" opacity="0.66"></rect><rect width="661" height="3" x="420.5" y="251.5" rx="1.5" transform="rotate(45, 751, 253)" opacity="0.41"></rect><rect width="649" height="3" x="428.5" y="143.5" rx="1.5" transform="rotate(45, 753, 145)" opacity="0.18"></rect><rect width="213" height="3" x="60.5" y="675.5" rx="1.5" transform="rotate(45, 167, 677)" opacity="0.85"></rect><rect width="159" height="3" x="172.5" y="776.5" rx="1.5" transform="rotate(45, 252, 778)" opacity="0.93"></rect><rect width="235" height="3" x="499.5" y="346.5" rx="1.5" transform="rotate(45, 617, 348)" opacity="0.51"></rect><rect width="374" height="3" x="352" y="388.5" rx="1.5" transform="rotate(45, 539, 390)" opacity="0.13"></rect><rect width="294" height="3" x="564" y="525.5" rx="1.5" transform="rotate(45, 711, 527)" opacity="0.21"></rect><rect width="317" height="3" x="235.5" y="350.5" rx="1.5" transform="rotate(45, 394, 352)" opacity="0.67"></rect><rect width="216" height="3" x="96" y="211.5" rx="1.5" transform="rotate(45, 204, 213)" opacity="0.33"></rect><rect width="410" height="3" x="-164" y="347.5" rx="1.5" transform="rotate(45, 41, 349)" opacity="0.69"></rect><rect width="464" height="3" x="42" y="500.5" rx="1.5" transform="rotate(45, 274, 502)" opacity="0.20"></rect><rect width="259" height="3" x="383.5" y="696.5" rx="1.5" transform="rotate(45, 513, 698)" opacity="0.15"></rect><rect width="355" height="3" x="189.5" y="139.5" rx="1.5" transform="rotate(45, 367, 141)" opacity="0.44"></rect><rect width="39" height="3" x="754.5" y="508.5" rx="1.5" transform="rotate(45, 774, 510)" opacity="0.10"></rect><rect width="47" height="3" x="308.5" y="18.5" rx="1.5" transform="rotate(45, 332, 20)" opacity="0.52"></rect><rect width="435" height="3" x="482.5" y="337.5" rx="1.5" transform="rotate(45, 700, 339)" opacity="0.80"></rect><rect width="260" height="3" x="348" y="541.5" rx="1.5" transform="rotate(45, 478, 543)" opacity="0.92"></rect><rect width="651" height="3" x="429.5" y="623.5" rx="1.5" transform="rotate(45, 755, 625)" opacity="0.89"></rect><rect width="437" height="3" x="458.5" y="58.5" rx="1.5" transform="rotate(45, 677, 60)" opacity="0.09"></rect><rect width="73" height="3" x="54.5" y="655.5" rx="1.5" transform="rotate(45, 91, 657)" opacity="0.95"></rect><rect width="230" height="3" x="576" y="750.5" rx="1.5" transform="rotate(45, 691, 752)" opacity="0.18"></rect><rect width="45" height="3" x="741.5" y="429.5" rx="1.5" transform="rotate(45, 764, 431)" opacity="0.75"></rect><rect width="121" height="3" x="415.5" y="174.5" rx="1.5" transform="rotate(45, 476, 176)" opacity="0.68"></rect><rect width="91" height="3" x="119.5" y="299.5" rx="1.5" transform="rotate(45, 165, 301)" opacity="0.43"></rect><rect width="314" height="3" x="25" y="129.5" rx="1.5" transform="rotate(45, 182, 131)" opacity="0.86"></rect><rect width="556" height="3" x="233" y="465.5" rx="1.5" transform="rotate(45, 511, 467)" opacity="0.47"></rect><rect width="345" height="3" x="475.5" y="255.5" rx="1.5" transform="rotate(45, 648, 257)" opacity="0.78"></rect><rect width="647" height="3" x="337.5" y="606.5" rx="1.5" transform="rotate(45, 661, 608)" opacity="0.98"></rect></g></svg>